<svg width="150" height="139" viewBox="0 0 150 139" fill="none" xmlns="http://www.w3.org/2000/svg">
<path fill-rule="evenodd" clip-rule="evenodd" d="M27.8706 0.0280696C27.748 0.150102 27.9778 1.47355 28.4385 3.29972C28.6077 3.97087 28.7857 4.69556 28.8338 4.91016C28.9478 5.41792 29.7735 7.92844 29.9624 8.34178C30.0429 8.51777 30.2163 8.91839 30.3478 9.23202C30.8756 10.4913 31.5681 11.9049 31.9411 12.4843C32.0831 12.7049 32.4356 13.2587 32.7244 13.7149C33.9611 15.6678 35.4459 17.2714 37.1407 18.4842C38.0112 19.1072 38.3459 19.3993 38.2909 19.488C38.1613 19.6968 37.1918 20.0319 36.2658 20.188C33.874 20.591 31.0803 20.1528 28.3124 18.9404C27.865 18.7444 27.3905 18.5488 27.2579 18.5057C26.946 18.4043 25.3967 17.5614 24.5801 17.0488C24.23 16.829 23.7884 16.5673 23.5987 16.4671C23.409 16.367 23.0564 16.1442 22.8153 15.9721C22.5741 15.7999 22.0378 15.4238 21.6235 15.1362C20.588 14.4174 19.1482 13.3373 18.6406 12.8985C18.4086 12.6979 18.1986 12.5337 18.174 12.5336C18.1248 12.5334 17.0073 11.62 16.8629 11.4619C16.7201 11.3055 15.9613 10.6613 15.5974 10.3875C15.4151 10.2504 15.1304 10.0104 14.9647 9.85443C14.3206 9.24787 13.6443 8.69257 13.6029 8.73615C13.5496 8.79221 13.7952 10.2263 13.9705 10.8827C14.2534 11.9418 14.947 13.8031 15.4502 14.8536C16.0315 16.067 17.1067 17.8911 17.4792 18.2959C17.5551 18.3785 17.8611 18.7389 18.159 19.0968C19.0536 20.1713 19.0944 20.2155 19.9986 21.0871C20.478 21.5493 20.8921 21.9615 20.9187 22.0029C20.9453 22.0445 21.1517 22.2201 21.3773 22.3931C21.6029 22.5662 22.0927 22.9467 22.4657 23.2388C23.1623 23.784 23.7106 24.1571 24.2596 24.4592C24.4315 24.5538 24.7665 24.7924 25.004 24.9895L25.4358 25.3478L25.175 25.423C24.6804 25.5657 23.9381 25.6242 22.1658 25.6603C19.6905 25.7108 17.6118 25.5288 15.4769 25.0746C12.8012 24.5055 10.5714 23.7983 8.41217 22.8342C7.92376 22.6162 7.49229 22.4377 7.45336 22.4377C7.364 22.4377 4.92723 21.1311 4.56699 20.8899C4.41935 20.7911 4.13582 20.6231 3.93696 20.5165C3.44789 20.2542 2.95966 19.9259 1.889 19.1394C1.39233 18.7745 0.967975 18.476 0.945919 18.476C0.923924 18.476 0.764896 18.3815 0.59249 18.2659C0.420084 18.1504 0.211039 18.0558 0.127939 18.0558C-0.00469486 18.0558 -0.0183729 18.0749 0.0161566 18.2119C0.0377902 18.2978 0.203447 18.6124 0.38423 18.9113C0.565072 19.21 0.713012 19.4711 0.713012 19.4913C0.713012 19.5324 1.14044 20.1556 1.38143 20.4659C1.46736 20.5764 1.84597 21.0856 2.22278 21.5974C3.66904 23.5615 4.45985 24.4859 5.98583 25.9967C8.05109 28.0413 9.88054 29.4477 12.3433 30.8843C13.7494 31.7045 14.6301 32.1269 16.2 32.7343C18.8806 33.7713 20.8461 34.2657 22.743 34.3802C23.909 34.4506 29.1739 34.4563 30.4818 34.3888C30.9624 34.3639 31.3641 34.3496 31.3745 34.3571C31.3849 34.3644 31.3222 34.4746 31.2352 34.6018C30.8153 35.2154 29.1636 38.199 28.9804 38.6747C28.9169 38.8398 28.6486 39.4479 28.3843 40.0259C27.9141 41.0544 26.9265 43.586 26.9265 43.7629C26.9265 43.812 26.8437 44.1189 26.7425 44.4448C25.0731 49.8227 24.5305 55.2114 25.0932 60.8243C25.3439 63.3247 25.9609 66.4186 26.6234 68.4976C26.7198 68.8002 26.854 69.2639 26.9215 69.528C27.0409 69.9954 27.6882 71.7766 27.9357 72.3192C28.0035 72.4678 28.132 72.7649 28.2213 72.9795C28.7361 74.2161 29.5654 75.9154 30.14 76.9112C31.079 78.5384 31.3105 78.9275 31.6622 79.4698C31.8683 79.7875 32.2429 80.3191 32.4947 80.6513C32.7465 80.9833 32.953 81.2771 32.9536 81.3041C32.9551 81.379 33.5792 82.1918 34.219 82.9524C34.5344 83.3273 34.8862 83.7557 35.0006 83.9042C35.115 84.0528 35.4019 84.3769 35.6382 84.6246C35.8745 84.8722 36.3083 85.3314 36.6022 85.645C37.0873 86.1627 37.4771 86.5398 38.8617 87.8312C39.1123 88.0649 39.6519 88.5262 40.0609 88.8564C40.4698 89.1865 41.0241 89.6388 41.2926 89.8613C41.5611 90.0838 41.8638 90.3055 41.9653 90.354C42.0667 90.4024 42.5142 90.7129 42.9596 91.0441C44.0124 91.8269 46.5131 93.3181 47.9876 94.0423C50.2902 95.1732 52.5536 96.0854 54.2547 96.568C54.6193 96.6714 54.9792 96.7814 55.0546 96.8123C55.362 96.9385 57.6528 97.497 58.8647 97.7412C61.1272 98.1971 62.3318 98.3295 65.1619 98.4331C66.7274 98.4904 67.3667 98.486 69.109 98.4057C71.8138 98.281 73.1905 98.1031 75.7076 97.5526C77.1254 97.2425 78.3706 96.8998 80.5284 96.2258C82.233 95.6935 85.8554 94.0414 87.6091 92.9965C88.0896 92.7102 88.5913 92.4208 88.7239 92.3535C89.0541 92.1857 90.8804 90.9584 91.2688 90.6432C91.4425 90.5024 91.6096 90.387 91.6402 90.387C91.7122 90.387 93.0592 89.3386 93.684 88.7964C93.9502 88.5653 94.31 88.2681 94.4835 88.1361C94.657 88.004 95.0727 87.6179 95.4072 87.278C95.7417 86.9381 96.1603 86.548 96.3374 86.411C96.5145 86.2741 96.9927 85.7823 97.4001 85.3183C97.8074 84.8541 98.2278 84.3935 98.3343 84.2944C98.5768 84.0689 99.2184 83.3018 99.4639 82.9438C99.5658 82.7953 99.76 82.5522 99.8957 82.4036C100.242 82.0245 101.217 80.6729 101.889 79.6424C102.201 79.1637 102.606 78.5424 102.79 78.2618C103.153 77.707 103.461 77.1283 104.66 74.7532C105.092 73.8965 105.446 73.1482 105.446 73.0904C105.446 73.0326 105.544 72.765 105.662 72.4957C106.236 71.1959 107.047 68.8607 107.349 67.6372C108.222 64.106 108.597 61.7004 108.764 58.5733C108.929 55.4616 108.562 51.2949 107.827 47.9487C107.707 47.404 107.569 46.7692 107.519 46.5381C107.235 45.2204 106.692 43.5266 105.959 41.676C105.684 40.9827 105.439 40.3479 105.414 40.2654C105.328 39.9804 104.731 38.7313 104.209 37.7443C103.922 37.1996 103.616 36.6188 103.531 36.4538C103.219 35.8494 102.695 34.9902 102.06 34.0405C101.702 33.5057 101.408 33.0465 101.406 33.0201C101.405 32.9938 101.33 32.8745 101.241 32.7549C101.151 32.6354 100.918 32.3248 100.722 32.0646C100.391 31.623 99.7615 30.8239 99.0095 29.889C98.3193 29.031 96.6012 27.2193 95.5863 26.2794C94.7645 25.5184 93.7685 24.6368 93.6351 24.5523C93.5523 24.4999 93.4031 24.3827 93.3037 24.2918C92.4949 23.5528 88.6283 20.8798 87.868 20.5341C87.6759 20.4467 87.3831 20.2894 87.2174 20.1845C86.6921 19.8523 84.2194 18.6103 83.8389 18.4876C83.6379 18.4228 83.3538 18.309 83.2075 18.2346C82.5203 17.8854 79.2915 16.7239 78.4494 16.523C78.2008 16.4637 77.5907 16.3126 77.0936 16.1872C74.5434 15.5441 72.0765 15.1531 69.5308 14.9885C68.873 14.946 67.5922 14.9324 66.1261 14.9524C63.7019 14.9856 62.9821 15.0374 60.9437 15.3254C59.9924 15.4598 59.8375 15.4662 58.7743 15.414C57.2718 15.3403 53.785 15.2538 48.9819 15.171L45.0951 15.1041L44.3904 14.7791C44.0029 14.6005 43.6494 14.4543 43.6049 14.4543C43.4853 14.4543 41.9906 13.599 41.3103 13.1412C40.9853 12.9225 40.5856 12.6593 40.4221 12.5563C39.9887 12.2831 39.2733 11.7391 38.5956 11.1673C38.2689 10.8916 37.9028 10.6036 37.7821 10.5273C37.6613 10.451 37.3031 10.1486 36.986 9.85533C36.669 9.56204 36.0995 9.04774 35.7205 8.71249C34.5478 7.67495 32.3411 5.3927 31.1748 4.01109C30.3837 3.0739 29.1695 1.4822 28.93 1.0685C28.5227 0.364815 28.024 -0.124876 27.8706 0.0280696ZM68.4763 21.9584C71.8192 22.133 74.9742 22.7032 77.6359 23.6137C79.9107 24.3919 80.7923 24.7549 82.3426 25.5522C84.8945 26.8645 84.6096 26.7008 86.1675 27.75C86.6087 28.0471 87.0565 28.3443 87.1627 28.4103C87.4156 28.5676 88.457 29.3787 89.3764 30.1345C90.9089 31.3942 93.384 34.0032 94.6596 35.7034C94.8702 35.9841 95.1326 36.3151 95.2427 36.4389C95.3529 36.5628 95.443 36.6926 95.443 36.7272C95.443 36.7618 95.7647 37.2682 96.1578 37.8525C97.0255 39.1418 97.1629 39.3806 98.0503 41.1416C98.7921 42.6136 99.203 43.528 99.443 44.2403C99.5239 44.4807 99.7663 45.1905 99.9816 45.8178C100.635 47.7224 101.233 50.1579 101.403 51.6103C101.779 54.8185 101.851 57.5941 101.619 59.9239C101.57 60.4191 101.503 61.1214 101.47 61.4846C101.307 63.2849 100.656 65.8006 99.4798 69.1679C98.988 70.5766 97.5116 73.5175 96.5274 75.049C95.4735 76.6891 94.4174 78.1757 94.1169 78.4419C93.9648 78.5766 93.3941 79.2815 93.3941 79.3347C93.3941 79.4197 90.7177 82.1499 90.3208 82.4698C90.1054 82.6435 89.7382 82.963 89.5049 83.1798C89.2716 83.3967 88.8377 83.7573 88.5408 83.9813C88.2437 84.2052 87.8245 84.5213 87.6091 84.6838C86.9597 85.1736 85.1966 86.3408 84.7514 86.5756C84.522 86.6965 84.0745 86.9518 83.7571 87.1427C83.1355 87.5166 82.1118 88.0398 81.4323 88.331C78.8421 89.4408 76.8657 90.138 75.4364 90.4462C72.7132 91.0332 71.7434 91.1973 69.867 91.3881C68.6573 91.5111 65.2337 91.5285 64.0772 91.4176C62.3227 91.2491 60.5476 90.9721 59.1773 90.6527C58.8355 90.573 58.2932 90.454 57.9721 90.3883C57.1725 90.2246 55.4613 89.6523 54.0137 89.0644C53.3508 88.7952 52.6322 88.505 52.4168 88.4196C51.8936 88.2121 50.641 87.5688 49.6641 87.0058C49.2273 86.7541 48.7663 86.4906 48.6397 86.4203C48.2223 86.1886 47.2135 85.5174 46.6619 85.1044C46.3636 84.881 45.9116 84.5534 45.6574 84.3763C43.9851 83.2109 40.5469 79.8138 39.2028 77.999C38.3868 76.8971 36.9297 74.7803 36.9297 74.6965C36.9297 74.6783 36.7266 74.3113 36.4784 73.8809C35.7912 72.6897 35.2062 71.5588 34.9372 70.9014C33.4595 67.2915 33.1672 66.3463 32.527 63.1053C31.8829 59.8453 31.7383 55.8694 32.1438 52.5707C32.3279 51.0733 32.8062 48.6139 33.168 47.3045C33.3628 46.5994 33.9631 44.8118 34.1309 44.4372C34.1752 44.3382 34.3771 43.852 34.5795 43.3567C35.1696 41.9131 35.5081 41.2126 36.233 39.9353C36.6077 39.275 36.9517 38.6622 36.9973 38.5735C37.128 38.3198 38.0822 36.9127 38.5049 36.3504C38.7157 36.0699 39.0444 35.6254 39.2353 35.3626C39.4262 35.0998 39.802 34.6435 40.0704 34.3487C40.3388 34.0539 40.7015 33.6371 40.8765 33.4225C41.0515 33.2079 41.34 32.8831 41.5178 32.7007C42.2209 31.9792 43.7512 30.5346 43.9649 30.3906C44.0893 30.3067 44.3433 30.1239 44.5292 29.9845C44.7152 29.845 45.0813 29.5705 45.3427 29.3745C45.9387 28.9279 46.9532 28.1298 46.9933 28.0761C47.0099 28.0539 47.3895 27.799 47.8369 27.5097C48.2844 27.2204 48.786 26.8952 48.9518 26.7871C49.1175 26.679 49.6056 26.409 50.0365 26.187C52.5832 24.8749 53.0026 24.6771 53.9534 24.3401C58.1712 22.8446 59.1051 22.6134 62.7478 22.162C62.9604 22.1356 66.4017 21.8719 66.8492 21.8975C66.9999 21.8975 66.9697 21.8975 67.0601 21.8975C67.271 21.8975 66.9669 21.8795 68.4763 21.9584ZM42.2327 41.5821C41.7021 41.7434 41.2087 42.1308 40.9925 42.556C40.4745 43.5742 39.2195 47.1585 38.9781 48.3089C38.9054 48.6555 38.8368 48.954 38.8257 48.9722C38.8146 48.9904 38.697 49.4766 38.5643 50.0526C37.3367 55.3825 37.1511 60.4021 38.0215 64.726C38.3156 66.187 38.8903 68.1815 39.3532 69.348C39.6153 70.0082 40.4901 71.7531 40.8004 72.2347C40.9087 72.4027 41.0742 72.6864 41.168 72.8649C41.4418 73.3857 42.4496 74.7446 43.323 75.7707C43.7193 76.2363 45.7047 78.1255 45.9874 78.3059C46.2575 78.4784 46.945 78.9992 47.1439 79.182C47.3326 79.3554 48.776 80.3573 48.9005 80.4013C48.9618 80.4229 49.0663 80.488 49.1325 80.546C49.3169 80.7071 51.6322 82.1175 51.9358 82.2535C52.0831 82.3196 52.566 82.5576 53.0088 82.7824C53.4517 83.0073 54.0553 83.297 54.3502 83.4263C54.6451 83.5556 55.0561 83.7402 55.2635 83.8367C55.471 83.9332 55.8848 84.0925 56.1831 84.1908C56.4813 84.2891 57.0644 84.481 57.4787 84.6173C61.6057 85.9752 65.6786 86.449 69.6212 86.03C72.08 85.7687 73.7376 85.3569 76.5512 84.3087C76.8823 84.1853 77.165 83.9625 77.4126 83.6297C77.7614 83.1607 77.8675 82.8008 77.8336 82.2015C77.7995 81.5991 77.6391 81.2364 77.2156 80.8037C76.9676 80.5504 76.8379 80.4716 76.4997 80.3685C75.8269 80.1635 75.5193 80.1943 74.398 80.5789C71.9536 81.4174 70.3646 81.7302 67.8435 81.8692C65.2115 82.0144 62.2203 81.6172 59.407 80.7489C59.1253 80.662 58.7185 80.5423 58.5031 80.4828C57.625 80.2407 56.2414 79.6353 54.0739 78.545C53.9745 78.4949 53.7711 78.3929 53.622 78.3182C53.2608 78.1372 51.539 77.0512 50.3114 76.23C49.55 75.7207 47.3834 73.9288 47.1265 73.5959C47.0366 73.4795 46.6696 73.0569 46.3109 72.6567C45.3923 71.6319 44.6469 70.5044 43.8653 68.9578C43.2941 67.8272 43.1656 67.506 42.7849 66.2566C42.3282 64.758 42.1173 63.7689 41.8888 62.0548C41.7334 60.8892 41.7344 57.2202 41.8905 55.8421C42.1119 53.8887 42.3948 52.3529 43.0848 49.3593C43.2142 48.798 43.9034 46.7218 44.3103 45.6677C44.9368 44.0447 44.9444 44.0198 44.9444 43.6079C44.9444 43.11 44.8299 42.7457 44.5647 42.3998C44.1037 41.7983 43.549 41.5224 42.8179 41.5311C42.5789 41.5339 42.3155 41.5569 42.2327 41.5821ZM106.956 84.4429C106.776 84.4711 106.407 84.6058 106.137 84.7422C105.589 85.0192 106.279 84.3518 99.1089 91.5397C93.3112 97.352 93.574 97.0526 93.337 98.1147C92.9122 100.019 93.6573 101.727 95.2622 102.528C95.9925 102.892 96.5532 103.015 97.2809 102.972C97.8961 102.935 98.2883 102.832 98.9381 102.534C99.3844 102.33 99.4609 102.257 105.071 96.6423C108.196 93.5156 110.87 90.8087 111.013 90.6271C111.347 90.2046 111.451 89.9998 111.625 89.4215C111.894 88.5253 111.879 87.7561 111.574 86.8544C111.306 86.0624 110.852 85.4824 110.115 84.9918C109.404 84.5179 109.115 84.4334 108.128 84.4109C107.664 84.4003 107.137 84.4147 106.956 84.4429ZM114.003 96.8482C113.51 96.9423 112.649 97.2012 112.286 97.3648C111.579 97.6834 110.618 98.3793 110.054 98.9817C109.634 99.4304 108.961 100.554 108.738 101.178C108.093 102.982 108.239 104.983 109.132 106.564C109.3 106.861 109.495 107.212 109.566 107.344C109.637 107.476 110.116 108.003 110.632 108.514C111.147 109.026 112.476 110.376 113.584 111.513C116.438 114.441 117.519 115.545 118.553 116.588C119.05 117.089 119.881 117.93 120.4 118.455C121.575 119.645 125.887 124.06 126.899 125.111C127.313 125.541 127.95 126.19 128.315 126.554C129.093 127.33 131.469 129.751 134.97 133.336C139.319 137.79 139.561 138.006 140.729 138.489C141.619 138.857 142.118 138.961 143.15 138.992C144.471 139.032 145.022 138.927 146.28 138.393C147.172 138.014 147.742 137.563 148.573 136.579C149.589 135.375 150.001 134.17 150 132.405C150 131.685 149.97 131.336 149.87 130.861C149.559 129.39 149.004 128.549 147.061 126.603C146.595 126.136 145.63 125.155 144.917 124.424C144.204 123.694 143.186 122.658 142.655 122.123C142.123 121.588 141.228 120.678 140.666 120.1C137.556 116.905 135.589 114.893 134.974 114.276C133.74 113.039 130.974 110.217 127.591 106.744C126.498 105.622 125.465 104.568 125.295 104.403C125.125 104.238 123.81 102.901 122.372 101.433C120.935 99.9642 119.619 98.6371 119.449 98.4837C118.744 97.8474 117.635 97.2469 116.719 97.0055C116.235 96.8781 115.983 96.851 115.148 96.8366C114.601 96.8272 114.086 96.8324 114.003 96.8482Z" fill="#333333"/>
</svg>
